<?xml version="1.0" encoding="UTF-8" standalone="no"?>
<!-- Created with Inkscape (http://www.inkscape.org/) -->

<svg
   xmlns:dc="http://purl.org/dc/elements/1.1/"
   xmlns:cc="http://creativecommons.org/ns#"
   xmlns:rdf="http://www.w3.org/1999/02/22-rdf-syntax-ns#"
   xmlns:svg="http://www.w3.org/2000/svg"
   xmlns="http://www.w3.org/2000/svg"
   xmlns:sodipodi="http://sodipodi.sourceforge.net/DTD/sodipodi-0.dtd"
   xmlns:inkscape="http://www.inkscape.org/namespaces/inkscape"
   id="svg7384"
   height="16"
   width="16"
   version="1.1"
   inkscape:version="0.48.4 r9939"
   sodipodi:docname="links-tray.svg">
  <defs
     id="defs12" />
  <sodipodi:namedview
     pagecolor="#ffffff"
     bordercolor="#666666"
     borderopacity="1"
     objecttolerance="10"
     gridtolerance="10"
     guidetolerance="10"
     inkscape:pageopacity="0"
     inkscape:pageshadow="2"
     inkscape:window-width="1440"
     inkscape:window-height="834"
     id="namedview10"
     showgrid="true"
     inkscape:zoom="128"
     inkscape:cx="7.5334489"
     inkscape:cy="3.1521302"
     inkscape:window-x="0"
     inkscape:window-y="27"
     inkscape:window-maximized="1"
     inkscape:current-layer="layer12">
    <inkscape:grid
       type="xygrid"
       id="grid3046" />
  </sodipodi:namedview>
  <metadata
     id="metadata90">
    <rdf:RDF>
      <cc:Work
         rdf:about="">
        <dc:format>image/svg+xml</dc:format>
        <dc:type
           rdf:resource="http://purl.org/dc/dcmitype/StillImage" />
        <dc:title>Gnome Symbolic Icon Theme</dc:title>
      </cc:Work>
    </rdf:RDF>
  </metadata>
  <title
     id="title9167">Gnome Symbolic Icon Theme</title>
  <g
     id="layer12"
     transform="translate(-80,-648)">
    <g
       id="layer12-0-0"
       transform="matrix(0.421875,0,0,0.421875,-0.13118386,334.78851)">
      <path
         inkscape:connector-curvature="0"
         id="path8420-1"
         style="text-indent:0;text-transform:none;block-progression:tb;color:#000000;fill:#bebebe"
         d="m 209,751.59 -0.71875,0.6875 -5,5 a 1.0165,1.0165 0 1 0 1.4375,1.4375 l 4.28,-4.28 4.2812,4.2812 a 1.0165,1.0165 0 1 0 1.4375,-1.4375 l -5,-5 -0.72,-0.69 z" />
      <rect
         id="rect8424-4"
         style="fill:#bebebe"
         rx="0"
         ry="1"
         transform="matrix(0,1,-1,0,0,0)"
         width="1"
         y="-215"
         x="758"
         height="1" />
      <rect
         id="rect8428-1"
         style="fill:#bebebe"
         rx="0"
         ry="1"
         transform="matrix(0,1,-1,0,0,0)"
         width="1"
         y="-204"
         x="758"
         height="1" />
    </g>
    <path
       inkscape:connector-curvature="0"
       d="m 83,659.51647 0,2.98353 10,0 0,-2.98353 z m 0.966102,0.0111 3,0 2,0 3,0 C 91,659.53126 91,660.26517 90,661 c -1,0 -3.990532,0.007 -3.99995,0.006 C 84.966102,660.27302 85,659.5074 83.966102,659.52714 z"
       style="color:#000000;fill:#bebebe;fill-rule:evenodd"
       id="rect11668-7-5-0"
       sodipodi:nodetypes="ccccccccccccc" />
  </g>
</svg>
